<svg width="128" height="128" viewBox="0 0 128 128" fill="none" xmlns="http://www.w3.org/2000/svg">
<rect width="128" height="128" fill="#306C8F"/>
<path d="M77.6733 56C77.1733 54.4697 76.5142 53.0985 75.696 51.8864C74.893 50.6591 73.9309 49.6136 72.8097 48.75C71.7036 47.8864 70.446 47.2273 69.0369 46.7727C67.6278 46.3182 66.0824 46.0909 64.4006 46.0909C61.643 46.0909 59.1354 46.803 56.8778 48.2273C54.6203 49.6515 52.8248 51.75 51.4915 54.5227C50.1581 57.2955 49.4915 60.697 49.4915 64.7273C49.4915 68.7576 50.1657 72.1591 51.5142 74.9318C52.8627 77.7045 54.6884 79.803 56.9915 81.2273C59.2945 82.6515 61.8854 83.3636 64.7642 83.3636C67.4309 83.3636 69.7794 82.7955 71.8097 81.6591C73.8551 80.5076 75.446 78.8864 76.5824 76.7955C77.7339 74.6894 78.3097 72.2121 78.3097 69.3636L80.0369 69.7273H66.0369V64.7273H83.7642V69.7273C83.7642 73.5606 82.946 76.8939 81.3097 79.7273C79.6884 82.5606 77.446 84.7576 74.5824 86.3182C71.7339 87.8636 68.4612 88.6364 64.7642 88.6364C60.643 88.6364 57.0218 87.6667 53.9006 85.7273C50.7945 83.7879 48.3703 81.0303 46.6278 77.4545C44.9006 73.8788 44.0369 69.6364 44.0369 64.7273C44.0369 61.0455 44.5294 57.7348 45.5142 54.7955C46.5142 51.8409 47.9233 49.3258 49.7415 47.25C51.5597 45.1742 53.7112 43.5833 56.196 42.4773C58.6809 41.3712 61.4157 40.8182 64.4006 40.8182C66.8551 40.8182 69.143 41.1894 71.2642 41.9318C73.4006 42.6591 75.3021 43.697 76.9688 45.0455C78.6506 46.3788 80.0521 47.9773 81.1733 49.8409C82.2945 51.6894 83.0672 53.7424 83.4915 56H77.6733Z" fill="white"/>
</svg>
